<svg width="324" height="31" viewBox="0 0 324 31" fill="none" xmlns="http://www.w3.org/2000/svg">
<path d="M0.439453 23.7773V12.7207H17.7012V17.5547H5.25586V18.9434H17.7012V30H0.439453V25.166H12.8848V23.7773H0.439453ZM44.4004 12.7031H61.6797V29.9824H56.8633V23.7598H49.2168V24.6914H44.4004V23.7598H41.4297V18.9434H44.4004V12.7031ZM56.8633 18.9434V17.5195H49.2168V18.9434H56.8633ZM29.6172 23.7598V25.166H52.3984V29.9824H24.7832V23.7598H21.8301V18.9434H24.7832V12.7031H42.6953V17.5195H29.6172V18.9434H39.7246V23.7598H29.6172ZM65.791 23.7773V12.7207H83.0527V17.5547H70.6074V18.9434H83.0527V30H65.791V25.166H78.2363V23.7773H65.791ZM87.1816 30V12.7207H104.443V30H87.1816ZM91.998 17.5371V25.1836H99.627V17.5371H91.998ZM122.213 21V12.7383L127.029 12.7207V30.0176L113.389 22.1602V30H108.572V12.7207L122.213 21ZM170.566 15.6035C170.496 15.709 170.438 15.8262 170.391 15.9551C170.309 16.1895 170.285 16.4473 170.32 16.7285H169.986C170.068 16.3184 170.121 15.8965 170.145 15.4629C170.156 15.4746 170.168 15.4863 170.18 15.498C170.203 15.5098 170.221 15.5156 170.232 15.5156C170.303 15.5508 170.414 15.5801 170.566 15.6035ZM154.904 15.5332C154.998 17.5723 155.777 19.3008 157.242 20.7188C158.719 22.125 160.477 22.8281 162.516 22.8281C163.641 22.8281 164.701 22.5938 165.697 22.125C166.705 21.6562 167.566 21.0117 168.281 20.1914H168.51V19.9102C168.627 19.7695 168.715 19.6582 168.773 19.5762V20.7012C167.988 21.5801 167.051 22.2715 165.961 22.7754C164.883 23.2793 163.734 23.5312 162.516 23.5312C161.051 23.5312 159.691 23.1797 158.438 22.4766C157.184 21.7617 156.176 20.8008 155.414 19.5938C154.664 18.375 154.26 17.0391 154.201 15.5859C154.295 15.5625 154.371 15.5391 154.43 15.5156C154.547 15.4688 154.635 15.4277 154.693 15.3926C154.729 15.4277 154.793 15.4688 154.887 15.5156L154.904 15.5332ZM153.797 12.0352H153.744C153.885 11.9414 153.99 11.8652 154.061 11.8066H154.078C154.066 11.8301 154.049 11.8711 154.025 11.9297C154.002 11.9883 153.984 12.0293 153.973 12.0527C153.961 12.0527 153.932 12.0527 153.885 12.0527C153.85 12.041 153.82 12.0352 153.797 12.0352ZM162.516 1.10156C159.516 1.10156 156.803 1.96289 154.377 3.68555C151.963 5.39648 150.258 7.62305 149.262 10.3652C149.133 10.3301 148.898 10.2891 148.559 10.2422C149.59 7.33594 151.383 4.96875 153.938 3.14062C156.492 1.3125 159.352 0.398438 162.516 0.398438C164.52 0.398438 166.436 0.791016 168.264 1.57617C170.092 2.34961 171.668 3.39844 172.992 4.72266C174.316 6.04687 175.371 7.62305 176.156 9.45117C176.941 11.2793 177.334 13.1953 177.334 15.1992C177.334 15.5977 177.316 15.9785 177.281 16.3418C177.047 16.3184 176.812 16.2773 176.578 16.2188C176.602 15.7734 176.613 15.4336 176.613 15.1992C176.613 13.2891 176.238 11.4668 175.488 9.73242C174.75 7.98633 173.748 6.48633 172.482 5.23242C171.229 3.9668 169.729 2.96484 167.982 2.22656C166.248 1.47656 164.426 1.10156 162.516 1.10156ZM169.811 11.1738L169.459 12.0352C168.85 10.6992 167.918 9.62109 166.664 8.80078C165.422 7.98047 164.039 7.57031 162.516 7.57031C161.262 7.57031 160.09 7.85742 159 8.43164C157.922 8.99414 157.031 9.76172 156.328 10.7344C156.023 10.7695 155.812 10.9336 155.695 11.2266L155.291 12.1934C155.186 12.0293 155.062 11.918 154.922 11.8594H154.887C155.543 10.3711 156.557 9.16992 157.928 8.25586C159.311 7.33008 160.84 6.86719 162.516 6.86719C164.051 6.86719 165.469 7.25977 166.77 8.04492C168.07 8.83008 169.084 9.87305 169.811 11.1738ZM148.893 11.5605C148.658 11.8652 148.494 12.0996 148.4 12.2637C148.107 12.7441 147.908 13.1777 147.803 13.5645C147.803 13.5762 147.797 13.5938 147.785 13.6172C147.785 13.6289 147.785 13.6406 147.785 13.6523C147.879 12.7969 148.014 12.0527 148.189 11.4199C148.377 11.4199 148.617 11.4492 148.91 11.5078V11.5254C148.898 11.5371 148.893 11.5488 148.893 11.5605ZM171.568 16.2715C171.604 16.2129 171.656 16.1777 171.727 16.166L171.709 16.1836C171.65 16.2891 171.592 16.3828 171.533 16.4648C171.533 16.4414 171.539 16.4121 171.551 16.377C171.562 16.3301 171.568 16.2949 171.568 16.2715ZM173.344 16.377C174.609 16.8457 175.395 17.1211 175.699 17.2031C175.629 17.6484 175.541 18.0938 175.436 18.5391H174.838V18.7148C174.826 18.7148 174.814 18.7148 174.803 18.7148C174.791 18.7031 174.779 18.6973 174.768 18.6973C174.686 18.6973 174.586 18.7207 174.469 18.7676C174.445 18.7676 174.422 18.7793 174.398 18.8027L174.363 18.7852C174.328 18.7617 174.299 18.7441 174.275 18.7324V18.7148H174.205C174.193 18.7148 174.17 18.7148 174.135 18.7148C174.111 18.7031 174.088 18.6973 174.064 18.6973C174.041 18.6973 174.012 18.7031 173.977 18.7148C173.953 18.7148 173.936 18.7148 173.924 18.7148H173.502C173.49 18.668 173.461 18.5801 173.414 18.4512C173.355 18.334 173.25 18.2109 173.098 18.082L173.607 17.3789L173.291 17.1328C173.15 17.0156 173.039 16.9395 172.957 16.9043C173.062 16.7285 173.168 16.541 173.273 16.3418L173.344 16.377ZM176.016 19.2773C176.215 18.5742 176.361 17.9473 176.455 17.3965C176.795 17.4668 177.023 17.5078 177.141 17.5195C176.777 19.8516 175.904 21.9668 174.521 23.8652C173.15 25.7637 171.41 27.2637 169.301 28.3652C167.191 29.4551 164.93 30 162.516 30C159.855 30 157.395 29.3496 155.133 28.0488C152.883 26.748 151.09 24.9785 149.754 22.7402C148.43 20.4902 147.75 18.041 147.715 15.3926C147.762 15.6035 147.844 15.8145 147.961 16.0254C148.066 16.2363 148.242 16.4297 148.488 16.6055C148.723 18.9492 149.484 21.0938 150.773 23.0391C152.074 24.9727 153.756 26.502 155.818 27.627C157.893 28.7402 160.125 29.2969 162.516 29.2969C165.48 29.2969 168.164 28.4531 170.566 26.7656C172.98 25.0781 174.697 22.8867 175.717 20.1914C175.729 20.1914 175.74 20.1855 175.752 20.1738C175.775 20.1621 175.793 20.1562 175.805 20.1562L176.016 20.0332V19.6992V19.2773ZM152.654 11.209C152.514 11.2324 152.396 11.2441 152.303 11.2441C152.115 11.2441 151.904 11.2148 151.67 11.1562C151.963 10.9336 152.227 10.7812 152.461 10.6992C152.777 10.5703 153.094 10.5059 153.41 10.5059C153.457 10.5059 153.504 10.5117 153.551 10.5234H153.621C153.574 10.6523 153.445 10.7871 153.234 10.9277C153.023 11.0684 152.83 11.1621 152.654 11.209ZM152.654 12.457C152.314 12.7148 152.027 13.1133 151.793 13.6523C151.676 13.8984 151.611 14.1152 151.6 14.3027C151.588 14.4082 151.594 14.543 151.617 14.707C151.477 15.2109 151.195 15.5977 150.773 15.8672L150.615 15.9199C150.557 15.9434 150.463 15.9551 150.334 15.9551C150.123 15.9551 149.971 15.9141 149.877 15.832C149.76 15.7383 149.684 15.5859 149.648 15.375C149.59 15.1406 149.59 14.8652 149.648 14.5488C149.707 14.1973 149.801 13.8574 149.93 13.5293C150.094 13.1191 150.275 12.7617 150.475 12.457C150.521 12.375 150.604 12.2637 150.721 12.123C151.354 12.334 151.887 12.4395 152.32 12.4395C152.414 12.4395 152.543 12.4277 152.707 12.4043L152.654 12.457ZM155.432 22.5117L155.607 22.6523C155.725 22.7695 155.719 22.8926 155.59 23.0215L154.57 24.1113C154.441 24.2402 154.324 24.252 154.219 24.1465L154.043 24.0059L155.432 22.5117ZM173.836 15.1289L174.785 12.8262C174.867 12.627 174.861 12.4277 174.768 12.2285C174.686 12.0293 174.545 11.8887 174.346 11.8066C174.264 11.7715 174.17 11.7539 174.064 11.7539C173.783 11.7539 173.561 11.8828 173.396 12.1406C173.303 11.9883 173.174 11.877 173.01 11.8066C172.928 11.7715 172.834 11.7539 172.729 11.7539C172.389 11.7539 172.148 11.918 172.008 12.2461L171.885 12.5449C171.873 12.5332 171.867 12.5215 171.867 12.5098C171.867 12.498 171.861 12.4863 171.85 12.4746C171.744 12.2871 171.586 12.1582 171.375 12.0879H171.357H171.34C171.246 12.0645 171.176 12.0527 171.129 12.0527L171.27 11.7363C171.352 11.5371 171.346 11.3379 171.252 11.1387C171.17 10.9395 171.029 10.7988 170.83 10.7168C170.748 10.6816 170.654 10.6641 170.549 10.6641C170.537 10.6641 170.514 10.6699 170.479 10.6816C170.443 10.6816 170.42 10.6816 170.408 10.6816C169.6 9.28711 168.498 8.17383 167.104 7.3418C165.709 6.50977 164.18 6.09375 162.516 6.09375C160.934 6.09375 159.463 6.47461 158.104 7.23633C156.744 7.99805 155.654 9.02344 154.834 10.3125C154.811 10.1719 154.787 10.0723 154.764 10.0137C154.682 9.81445 154.518 9.65039 154.271 9.52148C154.061 9.41602 153.797 9.36328 153.48 9.36328C153.047 9.36328 152.684 9.39258 152.391 9.45117C152.074 9.50977 151.74 9.60938 151.389 9.75C151.072 9.86719 150.773 10.0078 150.492 10.1719C150.234 10.3359 150.088 10.4297 150.053 10.4531C151.025 7.91016 152.643 5.84766 154.904 4.26562C157.178 2.67187 159.715 1.875 162.516 1.875C164.32 1.875 166.043 2.22656 167.684 2.92969C169.336 3.63281 170.754 4.58203 171.938 5.77734C173.133 6.96094 174.082 8.37891 174.785 10.0312C175.488 11.6719 175.84 13.3945 175.84 15.1992C175.84 15.5508 175.834 15.8145 175.822 15.9902C175.541 15.8965 174.908 15.6738 173.924 15.3223C173.854 15.2988 173.807 15.2812 173.783 15.2695C173.807 15.1992 173.824 15.1523 173.836 15.1289ZM155.66 8.18555C155.965 7.88086 155.959 7.55859 155.643 7.21875L154.623 6.18164C154.295 5.8418 153.973 5.83008 153.656 6.14648L153.164 6.63867L155.168 8.67773L155.66 8.18555ZM156.662 7.30664L157.682 6.63867L157.453 6.30469L156.803 6.72656L156.328 5.98828L156.838 5.6543L156.609 5.32031L156.1 5.6543L155.678 5.02148L156.328 4.59961L156.117 4.24805L155.08 4.93359L156.662 7.30664ZM159.545 5.83008L159.949 5.68945L158.93 3L158.332 3.22852L158.789 5.25L157.787 3.43945L157.189 3.66797L158.191 6.33984L158.561 6.19922L157.805 4.17773L158.877 6.09375L159.229 5.95312L158.771 3.80859H158.789L159.545 5.83008ZM161.25 5.51367C161.695 5.45508 161.889 5.18555 161.83 4.70508L161.637 3.22852C161.578 2.74805 161.32 2.53711 160.863 2.5957C160.418 2.6543 160.225 2.92383 160.283 3.4043L160.477 4.88086C160.535 5.36133 160.793 5.57227 161.25 5.51367ZM165.223 3.22852L165.293 2.82422L164.115 2.61328L163.641 5.44336L164.08 5.51367L164.291 4.2832L164.871 4.38867L164.941 3.98438L164.361 3.87891L164.502 3.10547L165.223 3.22852ZM165.574 5.14453C165.41 5.58984 165.539 5.89453 165.961 6.05859C166.383 6.22266 166.682 6.07617 166.857 5.61914L167.385 4.21289C167.549 3.76758 167.42 3.46289 166.998 3.29883C166.576 3.13477 166.277 3.28125 166.102 3.73828L165.574 5.14453ZM168.387 7.30664L169.916 4.89844L169.582 4.6875L168.668 6.12891H168.65L169.213 4.44141L168.738 4.14258L167.191 6.55078L167.525 6.76172L168.65 5.00391H168.668L168 7.06055L168.387 7.30664ZM171.533 6.86719L171.814 6.56836L170.812 5.60156L170.531 5.90039L170.865 6.23438L169.16 7.99219L169.494 8.30859L171.199 6.5332L171.533 6.86719ZM170.461 19.6289L170.531 19.6992C170.754 19.8867 170.988 20.0215 171.234 20.1035C171.516 20.1973 171.785 20.2441 172.043 20.2441C172.219 20.2441 172.406 20.2148 172.605 20.1562C172.664 20.1445 172.77 20.0977 172.922 20.0156V20.2266H174.627C174.662 20.2383 174.715 20.2441 174.785 20.2441H174.855C173.848 22.7051 172.225 24.7031 169.986 26.2383C167.748 27.7617 165.258 28.5234 162.516 28.5234C160.312 28.5234 158.25 28.0195 156.328 27.0117C154.418 26.0039 152.842 24.627 151.6 22.8809C150.369 21.1348 149.607 19.1895 149.314 17.0449C149.596 17.1387 149.906 17.1855 150.246 17.1855C150.48 17.1855 150.703 17.1504 150.914 17.0801C151.629 16.8457 152.162 16.3535 152.514 15.6035H152.637H152.654H152.795C152.924 15.5918 153.064 15.5449 153.217 15.4629L153.322 15.4102C153.334 15.4102 153.34 15.416 153.34 15.4277L153.375 15.4453H153.393L153.41 15.4629C153.457 17.0684 153.891 18.5508 154.711 19.9102C155.531 21.2695 156.633 22.3418 158.016 23.127C159.398 23.9121 160.898 24.3047 162.516 24.3047C163.887 24.3047 165.176 24.0176 166.383 23.4434C167.602 22.8574 168.639 22.0547 169.494 21.0352H170.338V19.8574C170.35 19.834 170.391 19.7578 170.461 19.6289ZM153.938 24.4629C154.266 24.7559 154.588 24.7324 154.904 24.3926L155.906 23.3379C156.234 22.998 156.229 22.6758 155.889 22.3711L155.379 21.8965L153.445 23.9883L153.938 24.4629ZM156.926 25.0781L157.137 24.7266L156.627 24.3926L157.014 23.7598L157.682 24.1641L157.893 23.8301L156.855 23.1797L155.344 25.6055L156.381 26.2559L156.592 25.9043L155.941 25.4824L156.398 24.7441L156.926 25.0781ZM159.141 27.3984L160.107 24.709L159.51 24.498L158.543 26.3262L158.965 24.3047L158.35 24.0938L157.4 26.7832L157.752 26.9062L158.49 24.8672L158.068 27.0117L158.42 27.1523L159.457 25.2188H159.475L158.736 27.2578L159.141 27.3984ZM161.76 27.1523L161.936 25.6582C161.994 25.1777 161.795 24.9082 161.338 24.8496C160.893 24.791 160.641 25.002 160.582 25.4824L160.406 26.9766C160.348 27.4453 160.541 27.709 160.986 27.7676C161.443 27.8262 161.701 27.6211 161.76 27.1523ZM164.572 27.6621L164.361 26.4316L164.924 26.3262L164.854 25.9395L164.291 26.0273L164.15 25.2539L164.889 25.1133L164.818 24.7266L163.641 24.9199L164.133 27.7324L164.572 27.6621ZM166.928 27.0645C167.35 26.9004 167.479 26.6016 167.314 26.168L166.787 24.7441C166.623 24.3105 166.33 24.1699 165.908 24.3223C165.486 24.4863 165.357 24.791 165.521 25.2363L166.049 26.6426C166.213 27.0762 166.506 27.2168 166.928 27.0645ZM169.406 25.7812L169.793 25.5352L168.281 23.1094L167.93 23.3203L168.844 24.7793L167.561 23.5664L167.086 23.8652L168.598 26.291L168.932 26.0801L167.824 24.3047H167.842L169.406 25.7812ZM171.305 24.2695L169.635 22.4766L169.969 22.1602L169.688 21.8613L168.668 22.8105L168.949 23.1094L169.301 22.793L170.971 24.5684L171.305 24.2695ZM160.916 3C161.057 2.97656 161.145 3.05859 161.18 3.24609L161.391 4.79297C161.426 4.98047 161.361 5.08594 161.197 5.10938C161.045 5.13281 160.951 5.05078 160.916 4.86328L160.723 3.31641C160.688 3.12891 160.752 3.02344 160.916 3ZM166.541 3.86133C166.6 3.68555 166.705 3.62695 166.857 3.68555C167.01 3.74414 167.051 3.86133 166.98 4.03711L166.418 5.49609C166.359 5.67188 166.254 5.73047 166.102 5.67188C165.949 5.61328 165.908 5.49609 165.979 5.32031L166.541 3.86133ZM161.303 25.2539C161.443 25.2773 161.508 25.3828 161.496 25.5703L161.303 27.1172C161.291 27.3047 161.203 27.3867 161.039 27.3633C160.898 27.3398 160.834 27.2402 160.846 27.0645L161.021 25.5176C161.033 25.3184 161.127 25.2305 161.303 25.2539ZM154.289 6.48047L155.344 7.55273C155.461 7.68164 155.467 7.79883 155.361 7.9043L155.203 8.0625L153.779 6.60352L153.938 6.44531C154.043 6.33984 154.16 6.35156 154.289 6.48047ZM166.365 24.8848L166.91 26.3438C166.98 26.5195 166.939 26.6367 166.787 26.6953C166.646 26.7539 166.541 26.6895 166.471 26.502L165.926 25.043C165.867 24.8789 165.908 24.7676 166.049 24.709C166.201 24.6504 166.307 24.709 166.365 24.8848ZM167.455 19.7695L166.33 18.3281V19.7695H165.609V17.4844C165.645 17.4844 165.697 17.4902 165.768 17.502C165.85 17.502 165.908 17.502 165.943 17.502C166.072 17.502 166.266 17.4902 166.523 17.4668L167.367 18.5391V17.1504H168.088V19.7695H167.455ZM175.084 19.5059V19.5234H174.592C174.592 19.5586 174.615 19.5996 174.662 19.6465C174.697 19.6816 174.738 19.6992 174.785 19.6992C174.82 19.6992 174.85 19.6934 174.873 19.6816C174.896 19.6699 174.926 19.6465 174.961 19.6113L175.049 19.6992C174.99 19.7461 174.955 19.7754 174.943 19.7871C174.873 19.8105 174.82 19.8223 174.785 19.8223C174.715 19.8223 174.668 19.8164 174.645 19.8047C174.621 19.793 174.586 19.7637 174.539 19.7168C174.516 19.6934 174.492 19.6582 174.469 19.6113C174.445 19.5645 174.434 19.5176 174.434 19.4707C174.434 19.4238 174.445 19.377 174.469 19.3301L174.521 19.2246C174.545 19.2012 174.58 19.1777 174.627 19.1543C174.674 19.1309 174.721 19.1191 174.768 19.1191C174.814 19.1191 174.861 19.1309 174.908 19.1543L174.996 19.2422C175.02 19.2656 175.043 19.3008 175.066 19.3477C175.078 19.3711 175.084 19.418 175.084 19.4883V19.5059ZM174.592 19.4355L174.926 19.418V19.4004C174.914 19.3887 174.908 19.377 174.908 19.3652C174.908 19.3418 174.896 19.3184 174.873 19.2949L174.838 19.2598H174.768C174.709 19.2598 174.668 19.2715 174.645 19.2949C174.609 19.3301 174.592 19.377 174.592 19.4355ZM179.725 15.6562C179.807 15.5859 179.889 15.5918 179.971 15.6738C180.053 15.7559 180.047 15.832 179.953 15.9023C179.062 16.7344 178.213 17.1328 177.404 17.0977C176.771 17.0742 175.471 16.6992 173.502 15.9727C173.291 15.9023 173.139 15.8555 173.045 15.832C172.775 16.3594 172.582 16.7051 172.465 16.8691C172.301 16.834 172.131 16.8164 171.955 16.8164C171.932 16.8164 171.896 16.8223 171.85 16.834C171.803 16.834 171.773 16.834 171.762 16.834L171.867 16.7285C171.891 16.7051 171.961 16.5879 172.078 16.377C172.09 16.3652 172.107 16.3301 172.131 16.2715C172.166 16.2012 172.207 16.1074 172.254 15.9902C172.301 15.873 172.342 15.7734 172.377 15.6914C171.686 15.6094 171.264 15.7793 171.111 16.2012C171.053 16.3887 171.047 16.5586 171.094 16.7109C171.141 16.8516 171.188 16.9453 171.234 16.9922C171.141 17.0391 171.07 17.0801 171.023 17.1152C171.023 17.127 171.018 17.1387 171.006 17.1504C170.994 17.1621 170.982 17.1738 170.971 17.1855C170.877 17.0684 170.812 16.9453 170.777 16.8164C170.695 16.5586 170.695 16.3184 170.777 16.0957C171 15.4863 171.58 15.2461 172.518 15.375C172.541 15.3164 172.564 15.2578 172.588 15.1992C172.611 15.1406 172.629 15.0938 172.641 15.0586C172.664 15.0117 172.676 14.9824 172.676 14.9707C172.559 15.0527 172.459 15.1055 172.377 15.1289C172.271 15.1641 172.166 15.1816 172.061 15.1816C171.979 15.1816 171.891 15.1699 171.797 15.1465C171.598 15.0762 171.51 14.918 171.533 14.6719V14.6543C171.51 14.7129 171.492 14.7773 171.48 14.8477C171.457 14.8711 171.41 14.9062 171.34 14.9531C171.234 15.0234 171.129 15.0762 171.023 15.1113C170.883 15.1582 170.771 15.1816 170.689 15.1816C170.584 15.1816 170.49 15.1641 170.408 15.1289C170.338 15.1055 170.279 15.0469 170.232 14.9531C170.197 14.8828 170.18 14.7949 170.18 14.6895C170.18 14.584 170.209 14.4551 170.268 14.3027L170.725 13.2305C170.748 13.1836 170.748 13.1309 170.725 13.0723C170.713 13.0371 170.672 13.0195 170.602 13.0195C170.52 13.0195 170.455 13.0312 170.408 13.0547C170.338 13.0898 170.279 13.1309 170.232 13.1777L169.529 14.918C169.494 15.0117 169.424 15.082 169.318 15.1289C169.225 15.1641 169.137 15.1641 169.055 15.1289C168.973 15.0938 168.908 15.0293 168.861 14.9355C168.826 14.8418 168.826 14.748 168.861 14.6543L170.215 11.3145C170.309 11.0918 170.461 11.0215 170.672 11.1035C170.754 11.1387 170.812 11.2031 170.848 11.2969C170.895 11.3906 170.9 11.4844 170.865 11.5781L170.514 12.457C170.455 12.5039 170.402 12.5566 170.355 12.6152C170.32 12.6621 170.297 12.7031 170.285 12.7383L170.268 12.791C170.361 12.6973 170.479 12.6152 170.619 12.5449C170.631 12.5332 170.648 12.5273 170.672 12.5273C170.695 12.5273 170.713 12.5215 170.725 12.5098L170.795 12.4746C170.9 12.4395 171.053 12.4453 171.252 12.4922C171.346 12.5273 171.422 12.5918 171.48 12.6855C171.574 12.8379 171.562 13.0547 171.445 13.3359L170.988 14.4082C170.953 14.4902 170.959 14.5488 171.006 14.584C171.064 14.6191 171.129 14.6309 171.199 14.6191C171.293 14.5957 171.375 14.5547 171.445 14.4961C171.527 14.4375 171.592 14.3672 171.639 14.2852L172.395 12.3867C172.477 12.1758 172.629 12.1113 172.852 12.1934C173.062 12.2754 173.127 12.4277 173.045 12.6504L172.359 14.4082C172.324 14.4902 172.324 14.5488 172.359 14.584C172.395 14.6191 172.436 14.6367 172.482 14.6367C172.553 14.6367 172.623 14.6191 172.693 14.584C172.705 14.584 172.752 14.5547 172.834 14.4961L172.799 14.6895L172.904 14.4258L172.922 14.373L173.326 13.4062L173.73 12.4043C173.824 12.1816 173.977 12.1113 174.188 12.1934C174.27 12.2285 174.328 12.293 174.363 12.3867C174.41 12.4805 174.416 12.5742 174.381 12.668L173.449 14.9707C173.426 15.0059 173.391 15.082 173.344 15.1992C173.297 15.3047 173.262 15.3867 173.238 15.4453H172.904C172.928 15.457 172.975 15.4746 173.045 15.498C173.115 15.5098 173.168 15.5215 173.203 15.5332L173.783 15.7266C175.6 16.3945 176.812 16.7402 177.422 16.7637C178.137 16.7988 178.904 16.4297 179.725 15.6562ZM149.701 11.2969C148.67 10.9453 147.826 10.9043 147.17 11.1738C146.514 11.4434 145.904 12.082 145.342 13.0898C145.283 13.1953 145.207 13.2188 145.113 13.1602C145.008 13.1016 144.984 13.0254 145.043 12.9316C145.348 12.3809 145.67 11.9355 146.01 11.5957C146.361 11.2559 146.684 11.0156 146.977 10.875C147.281 10.7344 147.621 10.6641 147.996 10.6641C148.371 10.6523 148.693 10.6816 148.963 10.752C149.244 10.8105 149.584 10.9102 149.982 11.0508C150.182 10.8867 150.416 10.7227 150.686 10.5586C150.885 10.4414 151.166 10.3066 151.529 10.1543C151.916 10.0137 152.227 9.92578 152.461 9.89062C152.836 9.83203 153.17 9.80273 153.463 9.80273C153.721 9.80273 153.92 9.83789 154.061 9.9082C154.201 9.97852 154.301 10.0781 154.359 10.207C154.418 10.3359 154.43 10.4707 154.395 10.6113C154.359 10.7754 154.295 10.9277 154.201 11.0684C154.131 11.1738 153.996 11.3145 153.797 11.4902C153.48 11.748 153.129 11.9121 152.742 11.9824C152.367 12.041 152.021 12.041 151.705 11.9824C151.4 11.9121 151.02 11.7949 150.562 11.6309C150.398 11.8418 150.246 12.0469 150.105 12.2461C149.906 12.5391 149.713 12.9199 149.525 13.3887C149.385 13.7402 149.285 14.1094 149.227 14.4961C149.18 14.8594 149.18 15.1816 149.227 15.4629C149.285 15.7559 149.396 15.9844 149.561 16.1484C149.736 16.3242 149.988 16.4121 150.316 16.4121C150.41 16.4121 150.551 16.3887 150.738 16.3418C150.809 16.3301 150.885 16.3008 150.967 16.2539C151.506 15.9141 151.863 15.4102 152.039 14.7422C152.004 14.6484 151.998 14.5195 152.021 14.3555C152.045 14.168 152.092 13.9922 152.162 13.8281C152.35 13.3594 152.596 13.0195 152.9 12.8086C153.17 12.6211 153.422 12.5098 153.656 12.4746H153.727C153.855 12.4746 153.955 12.4863 154.025 12.5098C154.037 12.5098 154.055 12.5215 154.078 12.5449C154.16 12.5918 154.195 12.6621 154.184 12.7559L154.289 12.457C154.324 12.375 154.389 12.3164 154.482 12.2812C154.576 12.2461 154.664 12.2461 154.746 12.2812C154.957 12.3633 155.021 12.5156 154.939 12.7383L154.324 14.2676C154.301 14.3145 154.283 14.3613 154.271 14.4082C154.26 14.4434 154.254 14.4844 154.254 14.5312C154.254 14.5781 154.271 14.6133 154.307 14.6367C154.342 14.6484 154.389 14.6484 154.447 14.6367C154.553 14.6133 154.641 14.5723 154.711 14.5137C154.77 14.4668 154.828 14.3965 154.887 14.3027C154.898 14.2793 154.928 14.209 154.975 14.0918C155.045 13.9277 155.104 13.793 155.15 13.6875L156.082 11.4023C156.176 11.1797 156.328 11.1094 156.539 11.1914C156.621 11.2266 156.68 11.291 156.715 11.3848C156.762 11.4785 156.768 11.5723 156.732 11.666L155.607 14.4609C155.584 14.543 155.59 14.5957 155.625 14.6191C155.672 14.6543 155.736 14.6602 155.818 14.6367C155.912 14.6133 155.994 14.5723 156.064 14.5137C156.135 14.4668 156.199 14.3906 156.258 14.2852L157.471 11.332C157.506 11.2383 157.57 11.1738 157.664 11.1387C157.77 11.0918 157.863 11.0859 157.945 11.1211C158.027 11.1562 158.086 11.2207 158.121 11.3145C158.168 11.4082 158.174 11.502 158.139 11.5957L157.014 14.3906C156.967 14.4844 156.949 14.5547 156.961 14.6016C156.984 14.6484 157.055 14.6602 157.172 14.6367C157.277 14.6133 157.365 14.5723 157.436 14.5137C157.506 14.4668 157.57 14.3906 157.629 14.2852L158.279 12.5977C158.314 12.5156 158.379 12.457 158.473 12.4219C158.566 12.375 158.66 12.3691 158.754 12.4043C158.836 12.4395 158.895 12.5039 158.93 12.5977C158.977 12.6914 158.982 12.7852 158.947 12.8789L158.314 14.5137C158.314 14.5723 158.326 14.6074 158.35 14.6191C158.396 14.6426 158.461 14.6484 158.543 14.6367C158.625 14.625 158.707 14.584 158.789 14.5137C158.895 14.4316 158.971 14.3379 159.018 14.2324C159.029 14.1504 159.07 14.0156 159.141 13.8281C159.328 13.3594 159.574 13.0195 159.879 12.8086C160.195 12.5859 160.5 12.4746 160.793 12.4746C160.934 12.4746 161.045 12.5098 161.127 12.5801C161.104 12.6855 161.121 12.7734 161.18 12.8438C161.145 12.6914 161.18 12.5684 161.285 12.4746C161.355 12.4277 161.408 12.3984 161.443 12.3867H161.461C161.531 12.3633 161.596 12.3691 161.654 12.4043C161.736 12.4395 161.795 12.5039 161.83 12.5977C161.877 12.6914 161.883 12.7852 161.848 12.8789L160.775 15.4805H160.459C160.541 15.4805 160.635 15.498 160.74 15.5332L160.793 15.5508C160.84 15.5625 160.893 15.5801 160.951 15.6035C161.021 15.627 161.086 15.6445 161.145 15.6562L161.215 15.6914V15.709H161.232C163.213 16.4238 164.66 16.8105 165.574 16.8691C166.723 16.9395 167.701 16.6055 168.51 15.8672C168.592 15.7969 168.668 15.7969 168.738 15.8672C168.82 15.9492 168.82 16.0312 168.738 16.1133C167.848 16.9336 166.787 17.3027 165.557 17.2207C164.631 17.1621 163.125 16.752 161.039 15.9902C160.793 15.9082 160.646 15.8613 160.6 15.8496C160.307 16.4238 160.084 16.7988 159.932 16.9746C159.533 17.4902 159.129 17.6309 158.719 17.3965C158.531 17.2793 158.396 17.0918 158.314 16.834C158.244 16.5879 158.25 16.3477 158.332 16.1133C158.555 15.5039 159.129 15.2637 160.055 15.3926C160.066 15.3691 160.084 15.334 160.107 15.2871C160.131 15.2285 160.148 15.1816 160.16 15.1465L160.582 14.0918L161.039 13.002L161.074 12.9141C161.027 12.8672 160.963 12.8438 160.881 12.8438C160.799 12.8438 160.723 12.8613 160.652 12.8965C160.559 12.9434 160.482 12.9961 160.424 13.0547C160.33 13.1484 160.254 13.248 160.195 13.3535C160.102 13.5176 160.02 13.6699 159.949 13.8105C159.844 14.0332 159.785 14.1562 159.773 14.1797C159.738 14.3086 159.721 14.4082 159.721 14.4785C159.721 14.584 159.732 14.6543 159.756 14.6895C159.791 14.7363 159.85 14.7598 159.932 14.7598C159.99 14.7598 160.066 14.7422 160.16 14.707L160.195 14.6895C160.207 14.6777 160.219 14.6719 160.23 14.6719L160.055 15.0938C159.984 15.1172 159.938 15.1348 159.914 15.1465C159.809 15.1816 159.715 15.1992 159.633 15.1992C159.562 15.1992 159.51 15.1934 159.475 15.1816C159.311 15.1465 159.199 15.082 159.141 14.9883C159.094 14.918 159.064 14.8594 159.053 14.8125C159.029 14.7422 159.018 14.6895 159.018 14.6543L159 14.5488C159 14.5605 158.994 14.5781 158.982 14.6016C158.982 14.6133 158.977 14.6309 158.965 14.6543C158.965 14.666 158.965 14.6836 158.965 14.707C158.848 14.8242 158.754 14.9062 158.684 14.9531C158.578 15.0234 158.473 15.0762 158.367 15.1113C158.25 15.1582 158.174 15.1816 158.139 15.1816H157.98C157.793 15.1699 157.658 15.0938 157.576 14.9531H157.559C157.559 14.9531 157.559 14.9473 157.559 14.9355L157.523 14.6191C157.477 14.6895 157.453 14.7715 157.453 14.8652C157.441 14.877 157.418 14.8945 157.383 14.918C157.359 14.9297 157.342 14.9414 157.33 14.9531C157.225 15.0234 157.119 15.0762 157.014 15.1113C156.896 15.1582 156.82 15.1816 156.785 15.1816H156.627C156.545 15.1816 156.469 15.1641 156.398 15.1289C156.328 15.1055 156.27 15.0469 156.223 14.9531V14.9355L156.205 14.918L156.188 14.9004C156.176 14.877 156.17 14.8418 156.17 14.7949V14.6191C156.135 14.6895 156.111 14.7715 156.1 14.8652C156.088 14.877 156.064 14.8945 156.029 14.918C155.994 14.9297 155.971 14.9414 155.959 14.9531C155.807 15.0586 155.707 15.1172 155.66 15.1289C155.59 15.1641 155.514 15.1816 155.432 15.1816H155.221H155.203L155.045 15.1289C154.951 15.082 154.881 15.0176 154.834 14.9355C154.799 14.8535 154.787 14.7773 154.799 14.707L154.816 14.6191C154.781 14.6895 154.758 14.7656 154.746 14.8477C154.723 14.8711 154.676 14.9062 154.605 14.9531C154.465 15.0469 154.359 15.1055 154.289 15.1289C154.184 15.1641 154.072 15.1816 153.955 15.1816H153.92H153.85H153.832C153.738 15.1582 153.662 15.1289 153.604 15.0938C153.568 15.082 153.545 15.0586 153.533 15.0234C153.428 14.8945 153.428 14.666 153.533 14.3379V14.3027L153.568 14.25L154.113 12.9141C154.09 12.8555 154.02 12.8262 153.902 12.8262C153.809 12.8262 153.727 12.8438 153.656 12.8789C153.562 12.9258 153.486 12.9785 153.428 13.0371C153.334 13.1309 153.258 13.2305 153.199 13.3359C153.105 13.5 153.023 13.6523 152.953 13.793C152.871 13.957 152.818 14.0801 152.795 14.1621C152.748 14.3262 152.725 14.4258 152.725 14.4609C152.725 14.5547 152.742 14.625 152.777 14.6719C152.812 14.7188 152.871 14.7422 152.953 14.7422C153.059 14.7422 153.141 14.7246 153.199 14.6895C153.211 14.6777 153.234 14.6602 153.27 14.6367C153.27 14.7539 153.287 14.8477 153.322 14.918C153.299 14.9414 153.205 15 153.041 15.0938C152.982 15.1289 152.883 15.1582 152.742 15.1816H152.637C152.426 15.1816 152.285 15.123 152.215 15.0059C152.215 15.0293 152.227 15.0645 152.25 15.1113C151.945 15.9199 151.453 16.4414 150.773 16.6758C150.598 16.7344 150.422 16.7637 150.246 16.7637C149.883 16.7637 149.514 16.6816 149.139 16.5176C148.764 16.3418 148.494 16.1074 148.33 15.8145C148.178 15.5332 148.09 15.2051 148.066 14.8301C148.055 14.4668 148.107 14.0859 148.225 13.6875C148.365 13.2305 148.541 12.8262 148.752 12.4746C148.998 12.0645 149.297 11.6953 149.648 11.3672C149.754 11.3789 149.912 11.4082 150.123 11.4551C150.076 11.4434 150.006 11.4199 149.912 11.3848C149.818 11.3379 149.748 11.3086 149.701 11.2969ZM159.633 16.3945C159.645 16.3828 159.662 16.3477 159.686 16.2891C159.721 16.2188 159.762 16.125 159.809 16.0078C159.855 15.8906 159.896 15.791 159.932 15.709C159.229 15.627 158.801 15.7969 158.648 16.2188C158.59 16.3945 158.59 16.5645 158.648 16.7285C158.754 17.0566 158.924 17.1387 159.158 16.9746C159.24 16.9043 159.322 16.8223 159.404 16.7285C159.486 16.6348 159.562 16.5234 159.633 16.3945ZM152.303 10.2949C151.799 10.5059 151.307 10.8574 150.826 11.3496C151.623 11.6309 152.262 11.7188 152.742 11.6133C152.977 11.5547 153.234 11.4316 153.516 11.2441C153.797 11.0449 153.967 10.8398 154.025 10.6289C154.072 10.4883 154.049 10.3594 153.955 10.2422C153.873 10.1367 153.691 10.084 153.41 10.084C153.023 10.084 152.654 10.1543 152.303 10.2949ZM168.035 13.8633C168.105 13.7109 168.158 13.582 168.193 13.4766C168.24 13.3125 168.264 13.2129 168.264 13.1777C168.264 13.0957 168.246 13.0254 168.211 12.9668C168.176 12.9199 168.123 12.8965 168.053 12.8965C167.971 12.8965 167.889 12.9141 167.807 12.9492C167.748 12.9727 167.66 13.0312 167.543 13.125L167.49 13.2832C167.49 13.2949 167.484 13.3125 167.473 13.3359L167.367 13.5645L167.016 14.4609L166.787 15.0234L166.717 15.1992L166.383 16.0605C166.301 16.2715 166.148 16.3359 165.926 16.2539C165.703 16.1602 165.633 16.0078 165.715 15.7969L166.084 14.9004C166.072 14.9121 166.049 14.9297 166.014 14.9531C165.873 15.0469 165.768 15.1055 165.697 15.1289C165.592 15.1641 165.48 15.1816 165.363 15.1816H165.311H165.293C165.188 15.1816 165.094 15.1523 165.012 15.0938C164.977 15.0703 164.936 15.0234 164.889 14.9531C164.842 14.8477 164.842 14.6953 164.889 14.4961C164.889 14.4844 164.889 14.4668 164.889 14.4434C164.9 14.4199 164.906 14.3965 164.906 14.373C164.918 14.3496 164.93 14.332 164.941 14.3203L165.521 12.9141C165.486 12.8555 165.416 12.8262 165.311 12.8262C165.229 12.8262 165.152 12.8438 165.082 12.8789C164.988 12.9258 164.912 12.9785 164.854 13.0371C164.76 13.1309 164.684 13.2305 164.625 13.3359C164.531 13.5 164.449 13.6523 164.379 13.793C164.273 14.0156 164.215 14.1387 164.203 14.1621C164.168 14.291 164.15 14.3965 164.15 14.4785C164.15 14.5723 164.162 14.6367 164.186 14.6719C164.221 14.7305 164.279 14.7598 164.361 14.7598C164.443 14.7598 164.525 14.7363 164.607 14.6895C164.619 14.6777 164.631 14.6719 164.643 14.6719C164.654 14.6719 164.666 14.666 164.678 14.6543C164.678 14.7598 164.695 14.8477 164.73 14.918C164.707 14.9414 164.613 15 164.449 15.0938C164.332 15.1523 164.203 15.1816 164.062 15.1816C163.91 15.1816 163.781 15.1465 163.676 15.0762C163.57 15.0059 163.5 14.9121 163.465 14.7949C163.453 14.7715 163.447 14.7246 163.447 14.6543H163.43V14.4961C163.395 14.5664 163.377 14.6484 163.377 14.7422L163.113 14.9531C162.973 15.0469 162.867 15.1055 162.797 15.1289C162.691 15.1641 162.58 15.1816 162.463 15.1816C162.357 15.1816 162.264 15.1641 162.182 15.1289C162.1 15.0938 162.041 15.041 162.006 14.9707C161.971 14.9004 161.953 14.8066 161.953 14.6895C161.953 14.6309 161.988 14.5078 162.059 14.3203L162.656 12.8438C162.562 12.8789 162.463 12.8789 162.357 12.8438C162.275 12.8086 162.217 12.7441 162.182 12.6504C162.146 12.5566 162.146 12.4688 162.182 12.3867L162.287 12.1582C162.369 11.9473 162.521 11.8828 162.744 11.9648C162.885 12.0234 162.955 12.1289 162.955 12.2812C162.885 12.3516 162.844 12.4219 162.832 12.4922C162.891 12.3867 162.979 12.3223 163.096 12.2988H163.184L163.219 12.3164H163.254C163.312 12.3398 163.359 12.375 163.395 12.4219C163.488 12.5156 163.506 12.6387 163.447 12.791L162.814 14.3203C162.768 14.4141 162.75 14.4961 162.762 14.5664C162.773 14.6367 162.844 14.6602 162.973 14.6367C163.066 14.6133 163.154 14.5723 163.236 14.5137C163.33 14.4434 163.4 14.3496 163.447 14.2324C163.459 14.127 163.506 13.9922 163.588 13.8281C163.787 13.3477 164.033 13.002 164.326 12.791C164.584 12.5918 164.865 12.4805 165.17 12.457C165.463 12.457 165.604 12.5508 165.592 12.7383L165.662 12.5977L165.715 12.457C165.797 12.2461 165.949 12.1816 166.172 12.2637C166.383 12.3457 166.447 12.498 166.365 12.7207L165.75 14.25C165.645 14.4961 165.645 14.625 165.75 14.6367C165.785 14.6367 165.826 14.6309 165.873 14.6191C165.979 14.5957 166.061 14.5605 166.119 14.5137C166.225 14.4316 166.301 14.332 166.348 14.2148L167.086 12.4043C167.18 12.1816 167.332 12.1113 167.543 12.1934C167.742 12.2754 167.812 12.4219 167.754 12.6328L167.648 12.8789C167.695 12.7617 167.783 12.6621 167.912 12.5801C167.936 12.5566 167.953 12.5449 167.965 12.5449C168.105 12.4863 168.234 12.457 168.352 12.457C168.492 12.457 168.615 12.4922 168.721 12.5625C168.826 12.6328 168.896 12.7324 168.932 12.8613C168.979 13.0254 168.996 13.166 168.984 13.2832C168.973 13.377 168.92 13.5527 168.826 13.8105C168.627 14.291 168.381 14.6367 168.088 14.8477C167.771 15.0703 167.473 15.1816 167.191 15.1816C167.062 15.1816 166.969 15.1582 166.91 15.1113L167.016 14.8125H167.104C167.186 14.8125 167.262 14.7949 167.332 14.7598C167.426 14.7129 167.502 14.6602 167.561 14.6016C167.654 14.5078 167.73 14.4082 167.789 14.3027C167.93 14.0566 168.012 13.9102 168.035 13.8633ZM158.701 11.5605C158.783 11.3496 158.936 11.2852 159.158 11.3672C159.369 11.4492 159.434 11.6016 159.352 11.8242L159.246 12.0527C159.164 12.2637 159.012 12.3281 158.789 12.2461C158.578 12.1641 158.514 12.0117 158.596 11.7891L158.701 11.5605ZM173.52 19.8047H173.344V19.6289H173.52V19.8047ZM162.814 19.418C162.686 19.2891 162.586 19.1484 162.516 18.9961C162.445 18.832 162.41 18.6562 162.41 18.4688V18.4512C162.41 18.252 162.445 18.0762 162.516 17.9238C162.586 17.7715 162.686 17.6309 162.814 17.502C162.943 17.373 163.096 17.2734 163.271 17.2031C163.447 17.1328 163.635 17.0977 163.834 17.0977C164.033 17.0977 164.221 17.1328 164.396 17.2031C164.549 17.2617 164.695 17.3613 164.836 17.502C164.965 17.6309 165.064 17.7715 165.135 17.9238C165.205 18.0762 165.24 18.252 165.24 18.4512C165.24 18.6387 165.205 18.8203 165.135 18.9961C165.064 19.1484 164.965 19.2891 164.836 19.418C164.707 19.5469 164.555 19.6465 164.379 19.7168C164.203 19.7871 164.016 19.8223 163.816 19.8223C163.617 19.8223 163.43 19.7871 163.254 19.7168C163.102 19.6582 162.955 19.5586 162.814 19.418ZM163.166 18.4512C163.166 18.5801 163.178 18.6738 163.201 18.7324C163.225 18.791 163.271 18.8672 163.342 18.9609C163.377 19.0195 163.447 19.0664 163.553 19.1016C163.67 19.1484 163.764 19.1719 163.834 19.1719C163.893 19.1719 163.98 19.1484 164.098 19.1016C164.203 19.0664 164.273 19.0195 164.309 18.9609C164.379 18.8672 164.426 18.791 164.449 18.7324C164.484 18.6504 164.502 18.5625 164.502 18.4688V18.4512C164.502 18.3691 164.484 18.2812 164.449 18.1875C164.426 18.1289 164.379 18.0527 164.309 17.959C164.273 17.9004 164.203 17.8535 164.098 17.8184C163.98 17.7715 163.887 17.748 163.816 17.748C163.723 17.748 163.635 17.7656 163.553 17.8008C163.471 17.8359 163.4 17.8887 163.342 17.959C163.271 18.0527 163.225 18.1289 163.201 18.1875C163.178 18.2461 163.166 18.334 163.166 18.4512ZM175.594 19.1367V19.2773H175.418V19.5938C175.418 19.6289 175.424 19.6523 175.436 19.6641C175.447 19.6758 175.471 19.6816 175.506 19.6816C175.541 19.6816 175.57 19.6758 175.594 19.6641V19.7871C175.582 19.7988 175.564 19.8047 175.541 19.8047H175.506C175.482 19.8164 175.465 19.8223 175.453 19.8223C175.441 19.8223 175.43 19.8164 175.418 19.8047H175.383C175.359 19.8047 175.336 19.793 175.312 19.7695L175.295 19.752C175.283 19.7402 175.277 19.7285 175.277 19.7168V19.6816C175.266 19.6582 175.26 19.6406 175.26 19.6289V19.2773H175.189V19.1367H175.26V18.9609H175.418V19.1367H175.594ZM174.293 19.8047H174.135V19.4355C174.135 19.4004 174.123 19.3594 174.1 19.3125C174.088 19.2773 174.053 19.2598 173.994 19.2598C173.959 19.2598 173.924 19.2773 173.889 19.3125C173.865 19.3359 173.854 19.377 173.854 19.4355V19.8047H173.695V19.1367H173.854V19.2422L173.889 19.207C173.9 19.207 173.906 19.2012 173.906 19.1895C173.906 19.1777 173.912 19.166 173.924 19.1543C173.936 19.1426 173.959 19.1367 173.994 19.1367H174.029C174.041 19.125 174.053 19.1191 174.064 19.1191C174.146 19.1191 174.205 19.1426 174.24 19.1895C174.275 19.248 174.293 19.3125 174.293 19.3828V19.8047ZM162.182 17.7832H160.811V18.2227H162.041V18.8379H160.811V20.1738H160.072V17.1504H162.182V17.7832ZM172.289 19.1719C172.348 19.1367 172.377 19.0898 172.377 19.0312C172.377 18.9961 172.365 18.9668 172.342 18.9434C172.318 18.9199 172.295 18.9023 172.271 18.8906C172.225 18.8672 172.184 18.8496 172.148 18.8379C172.02 18.8027 171.943 18.7793 171.92 18.7676C171.826 18.7441 171.697 18.709 171.533 18.6621C171.428 18.627 171.322 18.5801 171.217 18.5215C171.123 18.4512 171.053 18.375 171.006 18.293C170.959 18.2109 170.936 18.0938 170.936 17.9414C170.936 17.8125 170.959 17.7012 171.006 17.6074C171.064 17.502 171.135 17.4141 171.217 17.3438C171.322 17.25 171.428 17.1914 171.533 17.168C171.697 17.1211 171.838 17.0977 171.955 17.0977C172.154 17.0977 172.354 17.127 172.553 17.1855C172.729 17.2441 172.887 17.332 173.027 17.4492L172.676 17.959C172.535 17.8652 172.412 17.8008 172.307 17.7656C172.225 17.7305 172.102 17.7129 171.938 17.7129C171.844 17.7129 171.779 17.7246 171.744 17.748C171.697 17.7949 171.674 17.8359 171.674 17.8711V17.8887C171.674 17.9238 171.68 17.9473 171.691 17.959L171.762 18.0293C171.785 18.041 171.832 18.0586 171.902 18.082C171.938 18.0938 172.014 18.1113 172.131 18.1348C172.318 18.1816 172.453 18.2227 172.535 18.2578C172.641 18.293 172.74 18.3457 172.834 18.416C172.916 18.4629 172.986 18.5391 173.045 18.6445C173.08 18.7031 173.098 18.8027 173.098 18.9434V18.9609C173.098 19.1016 173.074 19.2188 173.027 19.3125C172.969 19.4414 172.898 19.5352 172.816 19.5938C172.734 19.6641 172.623 19.7168 172.482 19.752C172.354 19.7871 172.207 19.8047 172.043 19.8047C171.809 19.8047 171.586 19.7695 171.375 19.6992C171.152 19.6289 170.965 19.5234 170.812 19.3828L171.217 18.8906C171.486 19.1016 171.773 19.207 172.078 19.207C172.184 19.207 172.254 19.1953 172.289 19.1719ZM168.404 17.7832V17.1504H170.707V17.7832H169.916V20.6133H169.195V17.7832H168.404ZM200.885 12.7207H218.797V17.5371H205.719V18.9434H215.826V23.7773H205.719V25.1836H218.797V30H200.885V23.7773H197.932V18.9434H200.885V12.7207ZM236.549 21V12.7383L241.365 12.7207V30.0176L227.725 22.1602V30H222.908V12.7207L236.549 21ZM254.248 12.7207C256.627 12.7207 258.66 13.5645 260.348 15.252C262.035 16.9395 262.879 18.9727 262.879 21.3516C262.879 23.7305 262.035 25.7695 260.348 27.4688C258.66 29.1562 256.627 30 254.248 30H245.564V12.7207H254.248ZM254.248 25.1836C255.303 25.1836 256.199 24.8086 256.938 24.0586C257.688 23.3086 258.062 22.4062 258.062 21.3516C258.062 20.2969 257.688 19.4004 256.938 18.6621C256.199 17.9121 255.303 17.5371 254.248 17.5371H250.381V25.1836H254.248ZM267.061 12.7207H276.008V17.5371H273.934V25.1836H276.008V30H267.061V25.1836H269.117V17.5371H267.061V12.7207ZM293.83 21V12.7383L298.646 12.7207V30.0176L285.006 22.1602V30H280.189V12.7207L293.83 21ZM323.711 17.5371H310.633V18.9434H323.711V30H318.877H305.799V23.7773H302.846V18.9434H305.799V12.7207H323.711V17.5371ZM318.877 23.7773H310.633V25.1836H318.877V23.7773Z" fill="#030B19"/>
</svg>
